<svg width="45" height="45" viewBox="0 0 45 45" fill="none" xmlns="http://www.w3.org/2000/svg">
<path fill-rule="evenodd" clip-rule="evenodd" d="M0 4.21875C0 3.84579 0.148158 3.4881 0.411881 3.22438C0.675604 2.96066 1.03329 2.8125 1.40625 2.8125H5.625C5.93868 2.81259 6.24333 2.91755 6.49049 3.11069C6.73766 3.30384 6.91315 3.57408 6.98906 3.87844L8.12813 8.4375H40.7812C40.9877 8.43769 41.1916 8.48335 41.3785 8.57124C41.5653 8.65912 41.7305 8.78708 41.8624 8.94601C41.9942 9.10494 42.0894 9.29096 42.1412 9.49083C42.193 9.69071 42.2002 9.89954 42.1622 10.1025L37.9434 32.6025C37.8831 32.9247 37.7121 33.2158 37.4599 33.4253C37.2078 33.6349 36.8903 33.7497 36.5625 33.75H11.25C10.9222 33.7497 10.6047 33.6349 10.3526 33.4253C10.1004 33.2158 9.92939 32.9247 9.86906 32.6025L5.65312 10.1447L4.52813 5.625H1.40625C1.03329 5.625 0.675604 5.47684 0.411881 5.21312C0.148158 4.9494 0 4.59171 0 4.21875ZM8.72437 11.25L12.4172 30.9375H35.3953L39.0881 11.25H8.72437ZM14.0625 33.75C12.5707 33.75 11.1399 34.3426 10.085 35.3975C9.03013 36.4524 8.4375 37.8832 8.4375 39.375C8.4375 40.8668 9.03013 42.2976 10.085 43.3525C11.1399 44.4074 12.5707 45 14.0625 45C15.5543 45 16.9851 44.4074 18.04 43.3525C19.0949 42.2976 19.6875 40.8668 19.6875 39.375C19.6875 37.8832 19.0949 36.4524 18.04 35.3975C16.9851 34.3426 15.5543 33.75 14.0625 33.75ZM33.75 33.75C32.2582 33.75 30.8274 34.3426 29.7725 35.3975C28.7176 36.4524 28.125 37.8832 28.125 39.375C28.125 40.8668 28.7176 42.2976 29.7725 43.3525C30.8274 44.4074 32.2582 45 33.75 45C35.2418 45 36.6726 44.4074 37.7275 43.3525C38.7824 42.2976 39.375 40.8668 39.375 39.375C39.375 37.8832 38.7824 36.4524 37.7275 35.3975C36.6726 34.3426 35.2418 33.75 33.75 33.75ZM14.0625 36.5625C13.3166 36.5625 12.6012 36.8588 12.0738 37.3863C11.5463 37.9137 11.25 38.6291 11.25 39.375C11.25 40.1209 11.5463 40.8363 12.0738 41.3637C12.6012 41.8912 13.3166 42.1875 14.0625 42.1875C14.8084 42.1875 15.5238 41.8912 16.0512 41.3637C16.5787 40.8363 16.875 40.1209 16.875 39.375C16.875 38.6291 16.5787 37.9137 16.0512 37.3863C15.5238 36.8588 14.8084 36.5625 14.0625 36.5625ZM33.75 36.5625C33.0041 36.5625 32.2887 36.8588 31.7613 37.3863C31.2338 37.9137 30.9375 38.6291 30.9375 39.375C30.9375 40.1209 31.2338 40.8363 31.7613 41.3637C32.2887 41.8912 33.0041 42.1875 33.75 42.1875C34.4959 42.1875 35.2113 41.8912 35.7387 41.3637C36.2662 40.8363 36.5625 40.1209 36.5625 39.375C36.5625 38.6291 36.2662 37.9137 35.7387 37.3863C35.2113 36.8588 34.4959 36.5625 33.75 36.5625Z" fill="white"/>
</svg>
