<?xml version="1.0" encoding="utf-8"?>
<!-- Generator: Adobe Illustrator 16.0.0, SVG Export Plug-In . SVG Version: 6.00 Build 0)  -->
<!DOCTYPE svg PUBLIC "-//W3C//DTD SVG 1.1//EN" "http://www.w3.org/Graphics/SVG/1.1/DTD/svg11.dtd">
<svg version="1.1" id="Layer_1" focusable="false" xmlns="http://www.w3.org/2000/svg" xmlns:xlink="http://www.w3.org/1999/xlink"
	 x="0px" y="0px" width="1080px" height="1920px" viewBox="0 0 1080 1920" enable-background="new 0 0 1080 1920"
	 xml:space="preserve">
<path fill="#FFFFFF" d="M633.415,1500h330.871c63.907,0,115.714-51.807,115.714-115.714V535.714
	C1080,471.807,1028.193,420,964.286,420H115.714C51.807,420,0,471.807,0,535.714v848.572C0,1448.193,51.807,1500,115.714,1500
	h330.871"/>
<path fill="#1D2025" d="M446.585,1500v-367.176H294.71V960h151.875V828.278c0-149.825,89.196-232.586,225.812-232.586
	c65.427,0,133.843,11.668,133.843,11.668v147.054h-75.383c-74.274,0-97.441,46.093-97.441,93.367V960h165.81l-26.519,172.824
	H633.415V1500H446.585z"/>
</svg>
